<svg id="logosandtypes_com" xmlns="http://www.w3.org/2000/svg" viewBox="0 0 150 150.2"><style>.st1{fill:#09f}</style><path d="M0 .2h150v150H0V.2z" fill="none" id="Layer_3"/><g id="tsubaki"><path class="st1" d="M45.6 125.6h4.3l25.9-25.9H72l25.9-25.9h-4.3L67.7 99.7h3.8zM79.8 99.7l-25.9 25.9h4l26.2-25.9zM61.9 125.6h4.3l25.9-25.9h-4.2zM99.7 47.9l25.9-26.2h-4.3L95.4 47.9h4L73.3 73.8h4L51.4 99.7h-4l25.9-25.9h-3.8l25.9-25.9h-4l26.2-26.2H26L.1 47.9h42L16.2 73.8h20.4L10.4 99.7h20.4l-26 25.9h36.7l26.2-25.9h-4l25.9-25.9h-4L59.4 99.7h-3.8l25.9-25.9h-4l25.9-25.9h-3.7zm-8.6 0L65.2 73.8h-4l26.2-25.9h3.7zm-12 0h4L57.2 73.8h-4l25.9-25.9z"/><path class="st1" d="M129.6 21.7l-26.1 26.2h4.2l26.2-26.2zM137.7 21.7l-25.9 26.2h4.2l25.9-26.2zM146 21.7l-26.2 26.2h4.3L150 21.7z"/></g></svg>